<svg xmlns="http://www.w3.org/2000/svg" version="1.1" xmlns:xlink="http://www.w3.org/1999/xlink" xmlns:svgjs="http://svgjs.com/svgjs" width="102" height="68.51"><svg xmlns="http://www.w3.org/2000/svg" xmlns:xlink="http://www.w3.org/1999/xlink" version="1.1" id="SvgjsSvg1000" x="0px" y="0px" style="enable-background:new 0 0 250 150;" xml:space="preserve" viewBox="73.71 40.47 102 68.51">
<style type="text/css">
	.st0{fill:none;stroke:#2A9134;stroke-width:3;stroke-miterlimit:10;}
</style>
<g>
	<path class="st0" d="M147.71,95.48c0,1.58-0.31,3.1-0.86,4.48c0,0.01-0.01,0.01-0.01,0.02c-1.78,4.4-6.09,7.5-11.13,7.5   c-5.22,0-9.65-3.32-11.3-7.97c-0.46-1.26-0.7-2.61-0.7-4.03c0-6.63,5.37-12,12-12S147.71,88.85,147.71,95.48z"></path>
	<line class="st0" x1="75.94" y1="101.48" x2="112.44" y2="78.7"></line>
	<line class="st0" x1="111.67" y1="79.77" x2="110.71" y2="41.97"></line>
	<line class="st0" x1="75.21" y1="101.48" x2="125.21" y2="99.48"></line>
	<line class="st0" x1="145.71" y1="99.98" x2="174.21" y2="99.48"></line>
	<path class="st0" d="M109.2,42.62c16.06-0.97,39.93,2.97,44.84,20.68c0.92,3.3,2.7,7.05,4.66,10.39"></path>
	<path class="st0" d="M134.77,72.62c26.68-1.64,37.99,2.12,37.93,25.86"></path>
</g>
</svg><style>@media (prefers-color-scheme: light) { :root { filter: none; } }
</style></svg>